{"title":"Hot Tub Time Machine 2 {2015} CAM XViD MP3 MURD3R","uid":11794349,"size":1744961865,"categoryP":"video","categoryS":"movies","magnet":"?xt=urn:btih:e63643c2d6fee28d1267c1acf8ae1d49bbc56699&amp;dn=Hot+Tub+Time+Machine+2+%7B2015%7D+CAM+XViD+MP3+MURD3R&amp;tr=udp%3A%2F%2Ftracker.openbittorrent.com%3A80&amp;tr=udp%3A%2F%2Fopen.demonii.com%3A1337&amp;tr=udp%3A%2F%2Ftracker.coppersurfer.tk%3A6969&amp;tr=udp%3A%2F%2Fexodus.desync.com%3A6969","seeders":37,"leechers":12,"uploader":"makintos13","files":9,"time":1428072802,"description":"Hot Tub Time Machine 2 {2015} CAM XViD MP3 MURD3R\n\nscreen:\n &lt;a href=&quot;\nhttp://imgmak.com/an&quot; rel=&quot;nofollow&quot; target=&quot;_NEW&quot;&gt;\nhttp://imgmak.com/an&lt;/a&gt;\n &lt;a href=&quot;\nhttp://imgmak.com/ar&quot; rel=&quot;nofollow&quot; target=&quot;_NEW&quot;&gt;\nhttp://imgmak.com/ar&lt;/a&gt;\n &lt;a href=&quot;\nhttp://imgmak.com/aB&quot; rel=&quot;nofollow&quot; target=&quot;_NEW&quot;&gt;\nhttp://imgmak.com/aB&lt;/a&gt;\n\n\n\nSOURCE USED WAS VOBS FROM PURP****...THANK U BRO..\nSAMPLE INSIDE,,,,\n\nFormat                      : AVI\nFormat/Info                 : Audio Video Interleave\nFormat profile              : OpenDML\nFile size                   : 1.60 GiB\nDuration                    : 1h 27mn\nOverall bit rate            : 2 613 Kbps\nWriting library             : Lavf53.24.2\n\nVideo\nID                          : 0\nFormat                      : xvid\nCodec ID                    : xvid\nDuration                    : 1h 27mn\nBit rate                    : 2 471 Kbps\nWidth                       : 720 pixels\nHeight                      : 480 pixels\nDisplay aspect ratio        : 16:9\nFrame rate                  : 29.970 fps\nStandard                    : NTSC\nBits/(Pixel*Frame)          : 0.239\nStream size                 : 1.51 GiB (95%)\n\nAudio\nID                          : 1\nFormat                      : MPEG Audio\nFormat version              : Version 1\nFormat profile              : Layer 3\nMode                        : Joint stereo\nMode extension              : MS Stereo\nCodec ID                    : 55\nCodec ID/Hint               : MP3\nDuration                    : 1h 27mn\nBit rate mode               : Constant\nBit rate                    : 128 Kbps\nChannel(s)                  : 2 channels\nSampling rate               : 44.1 KHz\nCompression mode            : Lossy\nStream size                 : 80.2 MiB (5%)\nAlignment                   : Aligned on interleaves\nInterleave, duration        : 26 ms (0.78 video frame)\nWriting library             : LAME3.98.4","torrent":{"xt":"urn:btih:e63643c2d6fee28d1267c1acf8ae1d49bbc56699","amp;dn":"Hot+Tub+Time+Machine+2+%7B2015%7D+CAM+XViD+MP3+MURD3R","amp;tr":["udp%3A%2F%2Ftracker.openbittorrent.com%3A80","udp%3A%2F%2Fopen.demonii.com%3A1337","udp%3A%2F%2Ftracker.coppersurfer.tk%3A6969","udp%3A%2F%2Fexodus.desync.com%3A6969"],"infoHash":"e63643c2d6fee28d1267c1acf8ae1d49bbc56699","infoHashBuffer":{"type":"Buffer","data":[230,54,67,194,214,254,226,141,18,103,193,172,248,174,29,73,187,197,102,153]},"announce":[],"urlList":[]}}